Phish 11/16/89
Pearl Street - Northampton, MA

Source: SBD>CassX (recorded 11/95)

Transfer: Dennon DRW-840> Sony PCM-r500 at 44.1> Audiophile 2496> Samplitude 5.5> CD Wave Editor> FLAC on 11/16/04 by EEE

Disc 1 - Set I: 71min
t01 - Mike's\Song->*
t02 - I Am Hydrogen->
t03 - Weekapaug Groove
t04 - Bathtub Gin
t05 - Foam
t06 - Oh Kee Pa->
t07 - Suzie Greenberg
t08 - My Sweet One
t09 - Banter
t10 - Reba
t11 - You Enjoy Myself >
t12 - Frankenstien

Disc 2 - Set II: 30min
t01 - Sloth->
t02 - AC DC Bag
t03 - Tela
t04 - David Bowie\#
*recording starts with a wave from 10-12 seconds, lots of bass, then has a cut at 3:10. Mike's continues close to the conclusion with a good minute or two missing probably, but the recording has improved dramatically.
#The show ended after Bowie b/c a window broke at the club (so says my pharmer's almanac).

SHNTOOL Output:

    length     expanded size   cdr  WAVE problems filename
     4:07.52       43693148    ---   --   -----   ph1989-11-16d1t01.wav
     2:20.38       24785420    ---   --   -----   ph1989-11-16d1t02.wav
     6:10.62       65413868    ---   --   -----   ph1989-11-16d1t03.wav
     6:17.27       66566348    ---   --   -----   ph1989-11-16d1t04.wav
     8:05.66       85709276    ---   --   -----   ph1989-11-16d1t05.wav
     1:48.43       19152380    ---   --   -----   ph1989-11-16d1t06.wav
     5:09.32       54582908    ---   --   -----   ph1989-11-16d1t07.wav
     2:17.12       24195068    ---   --   -----   ph1989-11-16d1t08.wav
     0:51.26        9057596    ---   --   -----   ph1989-11-16d1t09.wav
    10:44.01      113603996    ---   --   -----   ph1989-11-16d1t10.wav
    17:55.73      189801740    ---   --   -----   ph1989-11-16d1t11.wav
     4:43.12       49949468    ---   --   -----   ph1989-11-16d1t12.wav
     3:43.52       39459548    ---   --   -----   ph1989-11-16d2t01.wav
     6:58.17       73775228    ---   --   -----   ph1989-11-16d2t02.wav
     6:53.61       72996716    ---   --   -----   ph1989-11-16d2t03.wav
    12:27.29      131839052    ---   --   -----   ph1989-11-16d2t04.wav
   100:35.03     1064581760 B                     (totals for 16 files, 1.0000 o
verall compression ratio)
